<svg xmlns="http://www.w3.org/2000/svg" xmlns:xlink="http://www.w3.org/1999/xlink" width="500" zoomAndPan="magnify" viewBox="0 0 375 374.999991" height="500" preserveAspectRatio="xMidYMid meet" version="1.0"><defs><clipPath id="1020beceda"><path d="M 187.5 0 C 83.945312 0 0 83.945312 0 187.5 C 0 291.054688 83.945312 375 187.5 375 C 291.054688 375 375 291.054688 375 187.5 C 375 83.945312 291.054688 0 187.5 0 Z M 187.5 0 " clip-rule="nonzero"/></clipPath><clipPath id="d34ccd8f09"><path d="M 97.609375 44.996094 L 277.390625 44.996094 L 277.390625 224.777344 L 97.609375 224.777344 Z M 97.609375 44.996094 " clip-rule="nonzero"/></clipPath><clipPath id="5bd8f4e545"><path d="M 187.5 44.996094 C 137.855469 44.996094 97.609375 85.242188 97.609375 134.886719 C 97.609375 184.53125 137.855469 224.777344 187.5 224.777344 C 237.144531 224.777344 277.390625 184.53125 277.390625 134.886719 C 277.390625 85.242188 237.144531 44.996094 187.5 44.996094 Z M 187.5 44.996094 " clip-rule="nonzero"/></clipPath><clipPath id="cf7db05c87"><path d="M 123.914062 121.042969 L 251.085938 121.042969 L 251.085938 328.6875 L 123.914062 328.6875 Z M 123.914062 121.042969 " clip-rule="nonzero"/></clipPath><clipPath id="f4a71c43c2"><path d="M 187.5 121.042969 C 204.363281 121.042969 220.535156 127.742188 232.460938 139.667969 C 244.386719 151.589844 251.085938 167.761719 251.085938 184.628906 L 251.085938 264.929688 C 251.085938 281.792969 244.386719 297.964844 232.460938 309.890625 C 220.535156 321.816406 204.363281 328.515625 187.5 328.515625 C 170.636719 328.515625 154.464844 321.816406 142.539062 309.890625 C 130.613281 297.964844 123.914062 281.792969 123.914062 264.929688 L 123.914062 184.628906 C 123.914062 167.761719 130.613281 151.589844 142.539062 139.667969 C 154.464844 127.742188 170.636719 121.042969 187.5 121.042969 Z M 187.5 121.042969 " clip-rule="nonzero"/></clipPath></defs><g clip-path="url(#1020beceda)"><rect x="-37.5" width="450" fill="#0e0c9b" y="-37.499999" height="449.999989" fill-opacity="1"/></g><g clip-path="url(#d34ccd8f09)"><g clip-path="url(#5bd8f4e545)"><path fill="#ffffff" d="M 97.609375 44.996094 L 277.390625 44.996094 L 277.390625 224.777344 L 97.609375 224.777344 Z M 97.609375 44.996094 " fill-opacity="1" fill-rule="nonzero"/></g></g><g clip-path="url(#cf7db05c87)"><g clip-path="url(#f4a71c43c2)"><path fill="#ffffff" d="M 123.914062 121.042969 L 251.085938 121.042969 L 251.085938 328.6875 L 123.914062 328.6875 Z M 123.914062 121.042969 " fill-opacity="1" fill-rule="nonzero"/></g></g></svg>